<?xml version="1.0" encoding="UTF-8" standalone="no"?>
<svg
   xmlns:dc="http://purl.org/dc/elements/1.1/"
   xmlns:cc="http://creativecommons.org/ns#"
   xmlns:rdf="http://www.w3.org/1999/02/22-rdf-syntax-ns#"
   xmlns:svg="http://www.w3.org/2000/svg"
   xmlns="http://www.w3.org/2000/svg"
   xmlns:sodipodi="http://sodipodi.sourceforge.net/DTD/sodipodi-0.dtd"
   xmlns:inkscape="http://www.inkscape.org/namespaces/inkscape"
   id="generated_logo_1"
   viewBox="0 0 217.75781 150"
   version="1.1"
   sodipodi:docname="logo_transparent.svg"
   width="217.75781"
   height="150">
  <metadata
     id="metadata37">
    <rdf:RDF>
      <cc:Work
         rdf:about="">
        <dc:format>image/svg+xml</dc:format>
        <dc:type
           rdf:resource="http://purl.org/dc/dcmitype/StillImage" />
      </cc:Work>
    </rdf:RDF>
  </metadata>
  <defs
     id="defs35" />
  <sodipodi:namedview
     pagecolor="#ffffff"
     bordercolor="#666666"
     borderopacity="1"
     objecttolerance="10"
     gridtolerance="10"
     guidetolerance="10"
     inkscape:pageopacity="0"
     inkscape:pageshadow="2"
     inkscape:window-width="640"
     inkscape:window-height="480"
     id="namedview33" />
  <style
     type="text/css"
     class="styleimportlogofontmain"
     id="style2">@import url(&quot;https://fonts.googleapis.com/css2?family=Special Elite:wght@400&quot;);#generated_logo_1 .maintypo { font-family: Special Elite; font-weight: 400; }</style>
  <style
     type="text/css"
     class="styleimportlogofontsub"
     id="style4">@import url(&quot;https://fonts.googleapis.com/css2?family=Open Sans:wght@300;400;700&quot;);#generated_logo_1 .subtypo { font-family: Open Sans; font-weight: 300; }</style>
  <style
     type="text/css"
     class="styleimportlogopos"
     id="style6" />
  <g
     id="logo-elements"
     transform="translate(-34.542966,125)"
     transform-box="stroke-box">
    <g
       id="iconcontainer"
       transform="translate(140,-50)"
       transform-origin="center"
       transform-box="fill-box">
      <g
         class="iconBGGrpM"
         transform="rotate(132)"
         id="g10">
        <g
           class="iconBGGrp"
           transform="matrix(0.1,0,0,0.1,-50,-50)"
           id="g8" />
      </g>
      <g
         class="iconGrpM"
         transform="scale(1.5)"
         id="g19">
        <g
           class="iconGrp"
           transform="matrix(0.1,0,0,0.1,-50,-50)"
           id="g17">
          <g
             class="lg_icon"
             id="lg_icon_81"
             stroke="none"
             stroke-width="1"
             fill="none"
             fill-rule="evenodd">
            <g
               id="0081">
              <path
                 id="FRAME"
                 style="fill:none"
                 d="M 0,0 V 1000 H 1000 V 0 Z" />
              <g
                 id="Icon"
                 transform="translate(65,300)"
                 fill="#660000">
                <path
                   id="Fill-1"
                   d="M 559.287,349.999 499.288,230 579.287,270 522.156,90 699.288,320 719.287,266.635 868.128,400 h 1.16 L 522.156,0 363.143,183.23 275.155,81.842 0,398.903 259.288,259.999 309.287,290 265.156,149.843 467.789,383.335 Z" />
              </g>
            </g>
          </g>
        </g>
      </g>
    </g>
    <g
       id="textlines"
       transform="translate(65,50)">
      <g
         id="einsg"
         transform="translate(3,-30)">
        <g
           aria-label="En Un Tour"
           id="eins"
           style="text-anchor:middle;text-rendering:geometricPrecision">
          <path
             d="m -13.699219,-22.542969 q 0,0.07031 -0.08789,0.28125 -0.08789,0.210938 -0.210938,0.457032 -0.105469,0.246093 -0.228516,0.457031 -0.123046,0.210937 -0.193359,0.28125 l 0.03516,0.01758 q -0.03516,0 -0.07031,0.01758 h -0.08789 q -0.07031,0.01758 -0.158203,0.01758 -0.07031,0 -0.158203,0 l 0.07031,-0.01758 q -0.404296,-0.01758 -0.738281,-0.140625 -0.316406,-0.140625 -0.527343,-0.509766 -0.03516,-0.07031 -0.105469,-0.246093 -0.07031,-0.19336 -0.140625,-0.404297 -0.07031,-0.210938 -0.123047,-0.386719 -0.03516,-0.193359 -0.03516,-0.28125 0,-0.140625 0.01758,-0.298828 0.03516,-0.158203 0.03516,-0.298828 0,-0.544922 -0.105469,-1.072266 -0.105468,-0.527344 -0.105468,-1.072265 0,-0.351563 0.08789,-0.685547 0.08789,-0.333985 0.316406,-0.615235 h -0.08789 q -0.210938,0 -0.333985,-0.123047 -0.123046,-0.140625 -0.404296,-0.140625 -0.667969,0 -1.300782,0.158204 -0.632812,0.158203 -1.335937,0.158203 -0.28125,0 -0.5625,0 -0.28125,-0.01758 -0.580078,-0.01758 -0.544922,0 -1.072266,0.123046 -0.527344,0.123047 -1.019531,0.123047 -0.05273,0 -0.05273,-0.01758 0,-0.03516 0.123047,-0.08789 0.123047,-0.07031 0.123047,-0.105469 0,-0.07031 -0.123047,-0.07031 -0.105468,0 -0.140625,0 -0.140625,0 -0.246093,0.140625 -0.08789,0.140625 -0.28125,0.19336 -0.263672,0.07031 -0.5625,0.07031 -0.298829,0 -0.580079,0 -0.175781,0 -0.509765,-0.01758 -0.333985,-0.01758 -0.667969,-0.07031 -0.333984,-0.07031 -0.615234,-0.19336 -0.263672,-0.140625 -0.298828,-0.386719 -0.19336,0.05273 -0.263672,0.19336 -0.05273,0.123047 -0.105469,0.263672 -0.03516,0.140625 -0.123047,0.263672 -0.08789,0.105468 -0.351562,0.123046 -0.492188,0.03516 -0.632813,0.316407 -0.140625,0.28125 -0.140625,0.632812 0,0.19336 0.01758,0.386719 0.01758,0.193359 0.01758,0.386719 0,0.703125 -0.03516,1.40625 -0.01758,0.685547 -0.01758,1.388672 0,0.298828 0,0.808593 0.01758,0.492188 0.07031,0.984375 0.07031,0.47461 0.19336,0.861328 0.123047,0.369141 0.351562,0.421875 0.140625,0.03516 0.298828,0.05273 0.158204,0 0.316407,0 0.615234,0 1.195312,-0.140625 0.597656,-0.140625 1.212891,-0.140625 0.246094,0 0.457031,0.07031 0.228516,0.07031 0.457031,0.07031 0.333985,0 0.509766,-0.316406 0.193359,-0.333985 0.263672,-0.75586 0.08789,-0.439453 0.105469,-0.878906 0.01758,-0.439453 0.01758,-0.650391 0,-0.439453 -0.03516,-0.861328 -0.01758,-0.439453 -0.01758,-0.878906 H -22.875 q 0.439453,0 0.826172,0.140625 0.386719,0.140625 0.808594,0.140625 0.175781,0 0.263672,-0.01758 0,0.351562 0.123046,0.703125 0.123047,0.351562 0.123047,0.720703 0,0.457031 -0.492187,0.580078 0.140625,0.246094 0.228515,0.492188 0.08789,0.246093 0.08789,0.509765 0,0.19336 -0.03516,0.386719 -0.03516,0.175781 -0.03516,0.369141 0,0.175781 0.105468,0.28125 0.123047,0.08789 0.123047,0.210937 0,0.210938 -0.175781,0.527344 -0.158203,0.316406 -0.158203,0.65039 0,0.386719 0.07031,0.808594 0.07031,0.421875 0.158203,0.878906 0.08789,0.457032 0.158204,0.931641 0.07031,0.457031 0.07031,0.931641 0,0.28125 -0.03516,0.580078 -0.01758,0.298828 -0.123047,0.580078 -0.08789,0.263672 -0.263672,0.492187 -0.158203,0.228516 -0.421875,0.386719 -0.333984,-0.03516 -0.5625,-0.193359 -0.228516,-0.175782 -0.386719,-0.404297 -0.140625,-0.246094 -0.228515,-0.527344 -0.07031,-0.298828 -0.105469,-0.597656 -0.07031,-0.457031 -0.07031,-0.84375 0,-0.386719 -0.175781,-0.650391 -0.158203,-0.28125 -0.632812,-0.439453 -0.457032,-0.158203 -1.441407,-0.158203 -0.28125,0 -0.808593,0.05273 -0.509766,0.05274 -1.019532,0.19336 -0.509765,0.123047 -0.896484,0.36914 -0.369141,0.246094 -0.369141,0.615235 0,0.210937 0.03516,0.421875 0.05273,0.193359 0.05273,0.404297 0,0.175781 -0.01758,0.351562 -0.01758,0.175781 -0.01758,0.369141 0,0.474609 0.05273,0.949218 0.05273,0.457032 0.05273,0.931641 0,0.509766 -0.140625,1.001953 -0.123047,0.4921877 -0.123047,1.0019534 0,0.5625 0.263672,0.8964843 0.28125,0.3164063 0.703125,0.4921876 0.421875,0.1582031 0.914062,0.2109375 0.492188,0.052734 0.914063,0.052734 0.84375,0 1.6875,-0.1054687 0.84375,-0.1054688 1.6875,-0.1054688 0.527343,0 1.054687,0.052734 0.527344,0.052734 1.054688,0.052734 0.404296,0 0.896484,-0.017578 0.492187,-0.035156 0.931641,-0.1757813 0.457031,-0.140625 0.773437,-0.4042969 0.333984,-0.28125 0.421875,-0.7910156 0.01758,-0.140625 0.08789,-0.1933594 0.08789,-0.070312 0.175781,-0.1054687 0.105469,-0.052734 0.175781,-0.1054688 0.07031,-0.052734 0.07031,-0.1757812 0,-0.140625 -0.105469,-0.3164063 -0.105469,-0.1933591 -0.140625,-0.3515621 -0.07031,-0.333985 -0.08789,-0.667969 0,-0.351563 0,-0.685547 0,-0.527344 0.158203,-0.914063 0.175782,-0.404296 0.175782,-0.878906 0,-0.140625 -0.01758,-0.263672 0,-0.123047 0,-0.263672 0,-0.105468 0.158203,-0.210937 0.158203,-0.105469 0.36914,-0.175781 0.210938,-0.08789 0.421875,-0.140625 0.210938,-0.05274 0.316406,-0.05274 0.439454,0 0.720704,0.316407 0.28125,0.298828 0.421875,0.738281 0.158203,0.439453 0.210937,0.914062 0.05273,0.47461 0.05273,0.808594 0,0.544922 -0.08789,1.230469 -0.08789,0.6855467 -0.246094,1.4062499 -0.140625,0.7207031 -0.333984,1.40625 -0.19336,0.6679687 -0.386719,1.1777344 -0.105469,0.2460937 -0.210938,0.3691406 -0.08789,0.1230469 -0.210937,0.2109375 -0.105469,0.070312 -0.246094,0.1582031 -0.123047,0.070312 -0.28125,0.2460938 -0.140625,0.1582031 -0.544922,0.2109375 -0.386718,0.052734 -0.826171,0.052734 -0.333985,0 -0.632813,-0.017578 -0.298828,-0.017578 -0.457031,-0.017578 -0.580078,0 -0.949219,0.140625 -0.351562,0.140625 -0.667969,0.140625 -0.228515,0 -0.298828,-0.087891 -0.07031,-0.1054688 -0.210937,-0.1054688 -0.123047,0 -0.228516,0.1054688 Q -20.730469,-5 -20.941406,-5 q -0.210938,0 -0.439453,0 -0.210938,-0.017578 -0.439453,-0.017578 -1.31836,0 -2.619141,0.070312 -1.300781,0.087891 -2.619141,0.1230469 -0.896484,0.035156 -1.77539,0.2109375 -0.878907,0.1757812 -1.775391,0.1757812 -0.316406,0 -0.720703,-0.070312 -0.404297,-0.052734 -0.773438,-0.2109375 -0.351562,-0.1582031 -0.597656,-0.421875 -0.246094,-0.28125 -0.246094,-0.6855469 0,-0.3867187 0.28125,-0.7382812 0.28125,-0.3515625 0.667969,-0.6503906 0.404297,-0.2988282 0.826172,-0.5449219 0.421875,-0.2636719 0.685547,-0.4921875 -0.01758,-0.140625 -0.01758,-0.2636719 0,-0.1230469 0,-0.2460938 0,-0.2636718 0,-0.5273437 0.01758,-0.2636719 0.105469,-0.5273438 0.03516,-0.1582031 0.175781,-0.3691408 0.158203,-0.228516 0.158203,-0.386719 0,-0.123047 -0.05273,-0.228515 -0.03516,-0.105469 -0.07031,-0.228516 -0.193359,-0.474609 -0.28125,-0.84375 -0.07031,-0.369141 -0.07031,-0.896484 0,-0.316407 0,-0.544922 0.01758,-0.246094 0.03516,-0.457031 0.03516,-0.228516 0.08789,-0.457032 0.07031,-0.246093 0.175782,-0.544922 -0.07031,-0.123046 -0.158203,-0.36914 -0.08789,-0.246094 -0.08789,-0.386719 l 0.246094,-2.496094 q -0.01758,-0.05273 -0.01758,-0.175781 0,-0.158203 0.05273,-0.316406 0.05273,-0.158203 0.05273,-0.333984 0,-0.404297 -0.140625,-0.791016 -0.140625,-0.404297 -0.140625,-0.808594 0,-0.140625 0.07031,-0.333984 0.07031,-0.19336 0.140625,-0.421875 0.08789,-0.228516 0.158203,-0.492188 0.07031,-0.28125 0.07031,-0.597656 0,-0.246094 -0.123046,-0.421875 -0.105469,-0.175781 -0.105469,-0.404297 0,-0.210937 0.105469,-0.421875 0.105468,-0.210937 0.105468,-0.457031 0,-0.351563 -0.140625,-0.667969 -0.123047,-0.333984 -0.263672,-0.632812 -0.210937,-0.439453 -0.333984,-0.703125 -0.105469,-0.28125 -0.263672,-0.439453 -0.158203,-0.175782 -0.439453,-0.246094 -0.263672,-0.08789 -0.773437,-0.123047 -0.246094,-0.01758 -0.47461,-0.140625 -0.210937,-0.140625 -0.386719,-0.351563 -0.158203,-0.210937 -0.263671,-0.457031 -0.105469,-0.246094 -0.105469,-0.474609 0,-0.316406 0.28125,-0.527344 0.28125,-0.228516 0.720703,-0.351562 0.439453,-0.140625 0.984375,-0.210938 0.544922,-0.08789 1.054687,-0.123047 0.527344,-0.05273 0.949219,-0.07031 0.439453,-0.01758 0.667969,-0.05273 0.351562,-0.05273 0.685547,-0.07031 0.333984,-0.01758 0.685547,-0.01758 0.685547,0 1.371093,0.05273 0.703125,0.03516 1.388672,0.03516 0.738282,0 1.441407,-0.140625 0.720703,-0.140625 1.458984,-0.140625 0.667969,0 1.318359,0.158203 0.650391,0.140625 1.283203,0.140625 0.615235,0 1.212891,-0.140625 0.597656,-0.158203 1.212891,-0.158203 0.263672,0 0.527343,0.05273 0.386719,0.421875 0.703125,0.703125 0.333985,0.28125 0.5625,0.580078 0.246094,0.28125 0.386719,0.667969 0.158203,0.386718 0.210938,1.019531 0.01758,0.228515 0.01758,0.5625 0,0.316406 0.01758,0.632812 0.01758,0.298828 0.08789,0.544922 0.08789,0.246094 0.263672,0.298828 0,0.246094 -0.246093,0.246094 0.01758,0.246094 0.105468,0.509766 0.08789,0.246093 0.175782,0.509765 0.08789,0.246094 0.158203,0.509766 0.07031,0.246094 0.07031,0.474609 z m -15.222656,4.324219 q -0.105469,0 -0.193359,0.03516 -0.08789,0.03516 -0.123047,0.158203 0.667969,0.386719 1.054687,0.738282 0.404297,0.333984 0.615235,0.544922 0.228515,0.210937 0.333984,0.246093 0.105469,0.01758 0.210938,-0.228515 0.140625,-0.316407 -0.05273,-0.597657 -0.175781,-0.28125 -0.509765,-0.474609 -0.316407,-0.193359 -0.703125,-0.298828 -0.369141,-0.123047 -0.632813,-0.123047 z"
             style="font-weight:400;font-size:36px;font-family:'Special Elite';letter-spacing:2.5;fill:#660000"
             id="path41" />
          <path
             d="m 12.671875,-5.4570312 q 0,0.2460937 -0.123047,0.4042968 -0.123047,0.1582032 -0.316406,0.2460938 -0.175781,0.087891 -0.404297,0.1054687 -0.210937,0.035156 -0.404297,0.035156 -0.263672,0 -0.527344,-0.035156 -0.263671,-0.035156 -0.527343,-0.070312 -0.351563,0.1230469 -0.8437504,0.2460938 -0.4746093,0.140625 -0.8613281,0.140625 -0.1054687,0 -0.2109375,-0.035156 -0.087891,-0.035156 -0.1757812,-0.035156 -0.2988282,0 -0.6152344,0.1054687 -0.2988282,0.1230469 -0.5976563,0.1230469 -0.5097656,0 -0.984375,-0.140625 Q 5.6230469,-4.4902344 5.1132812,-4.5253906 4.2871094,-4.5957031 3.8300781,-5.1582031 3.390625,-5.7382812 3.3554688,-6.5292969 3.9003906,-6.8632812 4.4980469,-6.9863281 5.1132812,-7.109375 5.7285156,-7.109375 q 0.3515625,0 0.6855469,0.017578 0.3515625,0.017578 0.703125,0.052734 -0.052734,-1.3183594 -0.2285156,-2.6367188 -0.1757813,-1.3183602 -0.1757813,-2.6542962 0,-0.457032 0.017578,-0.914064 0.035156,-0.457031 0.1230469,-0.914061 0.087891,-0.457032 0.2285156,-0.896485 0.140625,-0.457032 0.140625,-0.914062 0,-0.298828 -0.087891,-0.544922 -0.087891,-0.263672 -0.2285156,-0.527344 -0.1230469,-0.210937 -0.1582031,-0.474609 -0.035156,-0.263672 -0.087891,-0.527344 -0.052734,-0.28125 -0.1582031,-0.544922 Q 6.3964844,-18.851562 6.1503906,-19.0625 5.921875,-19.273437 5.5,-19.396484 q -0.421875,-0.123047 -1.1074219,-0.123047 -0.2109375,0 -0.6328125,0.07031 -0.4042968,0.05273 -0.84375,0.158203 -0.421875,0.08789 -0.8085937,0.228516 -0.3691407,0.123047 -0.5097657,0.263672 -0.087891,0.08789 -0.2285156,0.246094 -0.1230469,0.158203 -0.28125,0.333984 -0.14062497,0.158203 -0.28124997,0.298828 -0.14062501,0.123047 -0.24609376,0.140625 -0.26367187,0.05273 -0.40429687,0.08789 -0.12304688,0.03516 -0.2109375,0.105469 -0.0703125,0.07031 -0.12304687,0.210937 -0.0527344,0.123047 -0.17578126,0.369141 -0.0351563,0.07031 -0.140625,0.28125 -0.10546874,0.193359 -0.21093749,0.193359 -0.0878906,0 -0.12304688,-0.07031 -0.0351563,-0.07031 -0.12304688,-0.07031 -0.0351563,0 -0.10546872,0.05273 -0.052734,0.03516 -0.087891,0.07031 v 0.492187 q -0.1230469,0.140625 -0.2285157,0.158203 -0.087891,0 -0.1582031,0.01758 -0.052734,0.01758 -0.087891,0.08789 -0.017578,0.07031 -0.017578,0.333985 0,0.193359 -0.087891,0.351562 -0.087891,0.158203 -0.1933593,0.316406 -0.087891,0.158203 -0.1757813,0.333985 -0.087891,0.158203 -0.087891,0.36914 0,0.351563 0.087891,0.685547 0.1054688,0.316406 0.1054688,0.667969 0,0.228516 -0.070313,0.386719 -0.070312,0.158203 -0.1757812,0.298828 -0.087891,0.123047 -0.1582031,0.246094 -0.070312,0.123046 -0.070312,0.298828 0,0.246093 0.087891,0.457031 0.1054687,0.193359 0.2109375,0.404297 0.1054687,0.210937 0.1933594,0.439453 0.1054687,0.2285156 0.1054687,0.4921875 0,0.2988281 -0.070312,0.6152344 -0.070312,0.2988281 -0.070312,0.6152343 0,0.3691407 0.1054688,0.5800782 0.1230469,0.1933594 0.2988281,0.2988281 0.1933594,0.1054688 0.4394531,0.1582031 0.24609377,0.052734 0.49218753,0.1582032 0.26367187,0.087891 0.52734375,0.2636718 0.26367187,0.1582032 0.4921875,0.4921875 l 0.10546875,-0.017578 q 0.29882812,0 0.43945312,0.2460938 0.14062495,0.2460937 0.14062495,0.5097656 0,0.2460937 -0.1054687,0.4394531 -0.10546875,0.1757813 -0.10546875,0.4746094 0,0.2109375 -0.45703125,0.3515625 -0.45703125,0.140625 -1.03710937,0.2109375 -0.58007813,0.087891 -1.12500003,0.1054687 -0.5273437,0.035156 -0.703125,0.035156 -0.2109375,0 -0.6503906,-0.017578 -0.421875,0 -0.9667969,-0.035156 -0.5273437,-0.017578 -1.1074218,-0.070312 -0.5800782,-0.052734 -1.0722657,-0.1582031 -0.4921875,-0.087891 -0.84375,-0.2460938 -0.3339843,-0.140625 -0.421875,-0.3515625 -0.087891,-0.2109375 -0.1757812,-0.4570312 -0.087891,-0.2636719 -0.087891,-0.5097656 0,-0.2636719 0.1230468,-0.4746094 0.140625,-0.2109375 0.3339844,-0.3867188 0.2636719,-0.2460937 0.5800781,-0.28125 0.3164063,-0.052734 0.6152344,-0.052734 0.3164063,-0.017578 0.5976563,-0.052734 0.2988281,-0.052734 0.5097656,-0.28125 0.2285156,-0.2285156 0.3515625,-0.7207032 0.140625,-0.4921875 0.140625,-1.3886718 0,-0.2285157 -0.035156,-0.4570313 -0.035156,-0.246094 -0.087891,-0.457032 -0.052734,-0.228515 -0.087891,-0.404297 -0.035156,-0.175781 -0.035156,-0.263671 0,-0.105469 0.052734,-0.228516 0.070312,-0.123047 0.140625,-0.246094 0.087891,-0.140625 0.140625,-0.298828 0.070312,-0.158203 0.070312,-0.351562 0,-0.298829 -0.1230469,-0.580079 -0.1054687,-0.28125 -0.1054687,-0.580078 0,-0.246093 0.087891,-0.474609 0.087891,-0.228516 0.087891,-0.474609 0,-0.19336 -0.1054687,-0.369141 -0.1054688,-0.175781 -0.1054688,-0.386719 0,-0.193359 0.070312,-0.386719 0.070312,-0.210937 0.070312,-0.421874 0,-0.457032 -0.1054687,-0.931641 -0.1054688,-0.492188 -0.1933594,-0.949219 -0.1054687,-0.544922 -0.4042969,-0.808594 -0.28125,-0.28125 -0.6503906,-0.421875 -0.3691406,-0.140625 -0.7734375,-0.228515 -0.4042969,-0.08789 -0.7382812,-0.263672 -0.3339844,-0.193359 -0.5625,-0.527344 -0.2109376,-0.351562 -0.2109376,-1.019531 0,-0.457031 0.2636719,-0.703125 0.28125,-0.246094 0.6679688,-0.351563 0.3867187,-0.123046 0.8085937,-0.140625 0.4394532,-0.01758 0.7558594,-0.01758 0.5097656,0 1.0019531,0.158203 0.5097657,0.140625 1.0195313,0.175782 0.2285156,0.01758 0.4394531,0.158203 0.2109375,0.123047 0.3867187,0.316406 0.1757813,0.175781 0.28125,0.404297 0.1054688,0.228516 0.1230469,0.457031 0,0.105469 0.070312,0.386719 0.070312,0.263672 0.1582031,0.544922 0.1054688,0.28125 0.2109376,0.509765 0.1230468,0.210938 0.2460937,0.210938 0.1054688,-0.08789 0.140625,-0.193359 0.052734,-0.123047 0.087891,-0.228516 0.017578,-0.105469 0.2285157,-0.28125 0.2285156,-0.175781 0.49218745,-0.369141 0.28125,-0.193359 0.52734375,-0.36914 0.26367187,-0.175782 0.36914062,-0.28125 0.10546876,-0.123047 0.15820313,-0.246094 0.0703125,-0.140625 0.12304688,-0.246094 0.0703125,-0.123047 0.15820312,-0.193359 0.10546875,-0.07031 0.31640625,-0.07031 h 0.0878906 q 0.1933594,0 0.3691406,-0.158203 0.1757813,-0.175781 0.4570313,-0.386719 0.28125,-0.210937 0.7382813,-0.36914 0.4570312,-0.175781 1.2128906,-0.175781 0.6503906,0 1.3007812,0.03516 0.6503906,0.01758 1.2304688,0.175781 0.5976562,0.158203 1.1074218,0.492188 0.5273438,0.333984 0.9140626,0.93164 0.2988281,0.47461 0.4921875,0.703125 0.1933593,0.228516 0.3164062,0.439453 0.1230469,0.210938 0.1582031,0.509766 0.052734,0.298828 0.052734,0.896484 0,0.246094 0.087891,0.457032 0.087891,0.210937 0.1933594,0.439453 0.1230469,0.210937 0.2109375,0.457031 0.087891,0.246094 0.087891,0.5625 0,0.615234 -0.070312,1.230469 -0.070312,0.597656 -0.070312,1.21289 0,0.439453 -0.1757812,0.861328 -0.1582031,0.421875 -0.1582031,0.861328 0,0.210938 0.1054687,0.404297 0.1054688,0.19336 0.1054688,0.439453 0,0.298829 -0.070312,0.615235 -0.070312,0.298828 -0.070312,0.597656 0,0.28125 0.1230468,0.492188 0.140625,0.2109375 0.140625,0.4746094 0,0.140625 -0.070312,0.2285156 -0.052734,0.087891 -0.140625,0.1757813 -0.070312,0.087891 -0.140625,0.1933593 -0.052734,0.087891 -0.052734,0.2285157 0,0.2636718 0.1230468,0.5449219 0.140625,0.2636718 0.3515625,0.4921875 0.2109375,0.2109375 0.4746095,0.3515625 0.263672,0.1230468 0.527344,0.1230468 0.228515,0 0.386719,-0.087891 0.175781,-0.1054687 0.36914,-0.1054687 0.246094,0 0.439453,0.2109375 0.210938,0.1933593 0.351563,0.4746093 0.158203,0.28125 0.228515,0.5800782 0.08789,0.2988281 0.08789,0.4921875 z M 8.875,-12.083984 q 0,-0.175782 -0.1230469,-0.333985 -0.1054687,-0.175781 -0.2988281,-0.175781 -0.1933594,0 -0.2636719,0.193359 -0.070312,0.175782 -0.070312,0.333985 0,0.193359 0.070312,0.36914 0.070312,0.175782 0.28125,0.175782 0.1757813,0 0.2636719,-0.105469 Q 8.8398438,-11.75 8.875,-12.048828 Z m 0.2988281,3.3749996 q 0,-0.1230469 -0.1054687,-0.1933594 Q 8.9804688,-8.9902344 8.875,-9.0429688 8.8398438,-8.9375 8.7519531,-8.8320313 q -0.087891,0.1054688 -0.1757812,0.2285157 -0.087891,0.1230468 -0.1757813,0.2460937 -0.070312,0.1230469 -0.070312,0.2460938 0,0.140625 0.087891,0.2109375 0.087891,0.070312 0.2109375,0.1230469 0.017578,-0.1054688 0.1054687,-0.2109375 0.1054688,-0.1054688 0.1933594,-0.2285157 0.087891,-0.1230469 0.1582031,-0.2285156 0.087891,-0.1230469 0.087891,-0.2636719 z M -2.515625,-12.488281 q 0,-0.123047 -0.052734,-0.298828 -0.035156,-0.175782 -0.1230469,-0.333985 -0.070312,-0.175781 -0.1933593,-0.28125 -0.1054688,-0.123047 -0.2636719,-0.123047 -0.1933594,0 -0.3339844,0.123047 -0.140625,0.105469 -0.3515625,0.105469 h -0.070312 q -0.052734,0.193359 -0.052734,0.369141 l 0.017578,0.105468 0.017578,-0.05273 q 0.052734,0.193359 0.2109375,0.298828 0.1582031,0.105469 0.3339844,0.193359 0.1933593,0.07031 0.3867187,0.140625 0.1933594,0.07031 0.3339844,0.19336 0.140625,-0.158203 0.140625,-0.439453 z"
             style="font-weight:400;font-size:36px;font-family:'Special Elite';letter-spacing:2.5;fill:#660000"
             id="path43" />
          <path
             d="m 50.982422,-28.765625 q 0,0.210938 -0.158203,0.369141 -0.158203,0.140625 -0.386719,0.246093 -0.210938,0.105469 -0.439453,0.19336 -0.228516,0.08789 -0.386719,0.158203 -0.140625,0.07031 -0.246094,0.158203 -0.08789,0.08789 -0.193359,0.193359 -0.08789,0.08789 -0.210938,0.158204 -0.105468,0.07031 -0.28125,0.123046 -0.228515,0.05273 -0.404296,0.05273 -0.175782,0 -0.333985,0.03516 -0.158203,0.01758 -0.28125,0.123047 -0.123047,0.105469 -0.246094,0.369141 -0.105468,0.228515 -0.158203,0.544921 -0.03516,0.298829 -0.123047,0.580079 -0.08789,0.28125 -0.263671,0.474609 -0.158204,0.193359 -0.509766,0.193359 0,0.19336 0.123047,0.404297 0.140625,0.19336 0.28125,0.386719 0.158203,0.193359 0.28125,0.404297 0.123047,0.193359 0.123047,0.386719 0,0.210937 -0.08789,0.404296 -0.08789,0.19336 -0.08789,0.404297 l -0.01758,1.072266 q -0.01758,0.351562 0.123047,0.703125 0.158203,0.333984 0.158203,0.703125 0,0.210937 -0.08789,0.421875 -0.08789,0.193359 -0.08789,0.421875 0,0.738281 0.140625,1.476562 0.158203,0.720704 0.158203,1.494141 0,0.509766 -0.08789,1.107422 -0.08789,0.580078 -0.421875,0.984375 0.01758,0.246094 0.105468,0.421875 0.08789,0.158203 0.175782,0.351562 0.08789,0.175782 0.158203,0.404297 0.08789,0.210938 0.08789,0.5625 0,0.316406 -0.07031,0.84375 -0.05273,0.509766 -0.210938,1.001953 -0.158203,0.4746097 -0.439453,0.8437504 -0.263672,0.3515625 -0.685547,0.3515625 -0.03516,0 -0.07031,0 -0.01758,-0.017578 -0.05273,-0.017578 l -0.01758,0.1054688 v 0.052734 q 0,0.2460937 0.140625,0.4394531 0.158203,0.1933594 0.158203,0.4394531 0,0.1230469 -0.158203,0.3164063 -0.140625,0.1933594 -0.351562,0.4042969 -0.210938,0.2109375 -0.439453,0.4042968 -0.210938,0.1933594 -0.351563,0.3339844 -0.158203,0.1582031 -0.246094,0.3164063 -0.07031,0.140625 -0.158203,0.2636718 -0.07031,0.1054688 -0.210937,0.1933594 -0.123047,0.070312 -0.386719,0.1230469 -0.457031,0.087891 -0.808594,0.2636719 -0.351562,0.1757812 -0.685547,0.3691406 -0.333984,0.1757812 -0.720703,0.2988281 -0.386718,0.140625 -0.93164,0.140625 -0.298828,0 -0.580078,-0.070312 -0.28125,-0.070312 -0.5625,-0.1582031 -0.28125,-0.1054688 -0.580079,-0.1757813 -0.28125,-0.070312 -0.5625,-0.070312 -0.228515,0 -0.457031,0.035156 -0.210937,0.017578 -0.439453,0.017578 -0.175781,0 -0.28125,-0.017578 -0.08789,-0.017578 -0.210937,-0.140625 -0.08789,-0.1054688 -0.28125,-0.1933594 -0.175782,-0.087891 -0.386719,-0.1582031 -0.210938,-0.087891 -0.421875,-0.140625 -0.210938,-0.070312 -0.351563,-0.1054688 -0.316406,-0.087891 -0.615234,-0.3515625 -0.28125,-0.2636718 -0.527344,-0.5976562 -0.228515,-0.3515625 -0.421875,-0.7207031 -0.175781,-0.3691407 -0.28125,-0.6679688 -0.210937,-0.5976563 -0.298828,-1.2128906 -0.08789,-0.6328134 -0.140625,-1.2480474 -0.05273,-0.632813 -0.123047,-1.248047 -0.05273,-0.632812 -0.210937,-1.248047 -0.07031,-0.246094 -0.158203,-0.492187 -0.07031,-0.263672 -0.07031,-0.527344 0,-0.193359 0.03516,-0.369141 0.03516,-0.193359 0.07031,-0.386718 0.140625,-0.738282 0.210937,-1.494141 0.08789,-0.755859 0.08789,-1.511719 0,-1.001953 -0.105469,-1.986328 -0.08789,-0.984375 -0.08789,-1.986328 0,-0.193359 0,-0.369141 0,-0.175781 0.01758,-0.36914 0.03516,-0.351563 0.140625,-0.685547 0.123047,-0.333984 0.123047,-0.685547 0,-0.123047 -0.03516,-0.228516 -0.03516,-0.105468 -0.07031,-0.228515 -0.210938,-0.457031 -0.246094,-0.826172 -0.03516,-0.386719 -0.07031,-0.878906 -0.07031,-0.75586 -0.316407,-1.072266 -0.228515,-0.316406 -0.597656,-0.457031 -0.351562,-0.140625 -0.791016,-0.228516 -0.421875,-0.105469 -0.896484,-0.457031 -0.140625,-0.08789 -0.246094,-0.210938 -0.08789,-0.140625 -0.08789,-0.298828 0,-0.28125 0.298828,-0.509765 0.316406,-0.228516 0.738281,-0.369141 0.421875,-0.140625 0.84375,-0.210937 0.421875,-0.08789 0.650391,-0.08789 0.28125,0 0.527343,0.07031 0.263672,0.07031 0.544922,0.07031 0.5625,0 1.089844,-0.123047 0.527344,-0.140625 1.089844,-0.140625 0.228515,0 0.703125,0.08789 0.474609,0.08789 0.949219,0.263672 0.474609,0.158203 0.826171,0.404296 0.369141,0.228516 0.369141,0.527344 0,0.386719 -0.246094,0.738281 -0.228515,0.333985 -0.580078,0.650391 -0.351562,0.316406 -0.773437,0.650391 -0.404297,0.333984 -0.75586,0.720703 -0.351562,0.386719 -0.597656,0.878906 -0.228516,0.474609 -0.228516,1.072266 0,0.351562 0.01758,0.720703 0.03516,0.351562 0.03516,0.703125 0,0.703125 -0.140625,1.388672 -0.123047,0.685547 -0.123047,1.40625 0,0.580078 0.158203,1.054687 0.175781,0.457031 0.175781,0.720703 0,0.28125 -0.07031,0.527344 -0.05273,0.228516 -0.05273,0.492188 0,0.123046 0,0.228515 0.01758,0.105469 0.01758,0.228516 0,0.28125 -0.08789,0.457031 -0.07031,0.175781 -0.158203,0.316406 -0.08789,0.140625 -0.175781,0.263672 -0.08789,0.123047 -0.08789,0.28125 0.08789,-0.07031 0.175781,-0.123047 0.08789,-0.05273 0.19336,-0.05273 0.123046,0 0.193359,0.08789 0.07031,0.08789 0.105469,0.210938 0.05273,0.105469 0.07031,0.246094 0.01758,0.123047 0.01758,0.210937 0,0.457031 0.123047,0.896485 0.140625,0.439453 0.140625,0.896484 0,0.404297 -0.07031,0.826172 -0.07031,0.404297 -0.07031,0.826172 0,0.404297 0.05273,0.755859 0.07031,0.333984 0.474609,0.544922 0.07031,0.03516 0.158203,0.210938 0.08789,0.1757812 0.175781,0.3867187 0.105469,0.1933594 0.210938,0.4042969 0.105469,0.1933594 0.210937,0.28125 0.210938,0.1933594 0.457032,0.3164063 0.246093,0.1230468 0.492187,0.2460937 0.263672,0.1054688 0.492188,0.2460938 0.246093,0.1230469 0.439453,0.3515625 0.158203,0.1933594 0.404297,0.3515625 0.246093,0.140625 0.474609,0.3164062 0.246094,0.1582032 0.421875,0.3515625 0.175781,0.1933594 0.175781,0.4746094 0,-0.2285156 0.07031,-0.3691406 0.01758,0.052734 0.01758,0.1582031 0,0.140625 -0.07031,0.2109375 0.05273,-0.052734 0.123047,-0.1757812 0.07031,-0.1230469 0.140625,-0.2460938 0.07031,-0.1230469 0.140625,-0.2109375 0.07031,-0.087891 0.158203,-0.087891 0.123047,0 0.228516,0.087891 0.105469,0.087891 0.105469,0.2285156 0,0.1757813 -0.07031,0.3339844 -0.07031,0.1582031 -0.08789,0.3339844 0.175781,0 0.351562,-0.070312 0.193359,-0.087891 0.351563,-0.2109375 0.158203,-0.1230469 0.246093,-0.28125 0.105469,-0.1757813 0.105469,-0.3691406 0,-0.2285157 -0.140625,-0.28125 -0.123047,-0.070312 -0.316406,-0.070312 -0.140625,0 -0.28125,0.017578 Q 41.296875,-7.25 41.15625,-7.25 h -0.05273 q 0.08789,-0.2636719 0.263671,-0.4394531 0.175782,-0.1757813 0.404297,-0.28125 Q 42,-8.09375 42.246094,-8.1640625 q 0.246093,-0.087891 0.474609,-0.1757813 0.369141,-0.140625 0.597656,-0.3691406 0.228516,-0.2460937 0.421875,-0.5097656 0.19336,-0.2636719 0.386719,-0.5273438 0.193359,-0.2812502 0.474609,-0.5097652 0.01758,-0.123047 0.01758,-0.228516 0,-0.105469 0,-0.210938 0,-0.36914 -0.03516,-0.720703 -0.01758,-0.36914 -0.01758,-0.738281 0,-0.404297 0.105469,-0.808594 0.123047,-0.404297 0.123047,-0.808593 0,-0.351563 -0.08789,-0.667969 -0.08789,-0.333985 -0.08789,-0.685547 0,-0.316406 0.08789,-0.615234 0.08789,-0.316407 0.08789,-0.632813 0,-0.509765 -0.08789,-0.984375 -0.08789,-0.492187 -0.08789,-0.984375 0,-0.667969 0.105468,-1.300781 0.123047,-0.632813 0.123047,-1.283203 0,-0.84375 -0.158203,-1.652344 -0.140625,-0.808594 -0.140625,-1.652344 0,-0.123047 0,-0.316406 0.01758,-0.210937 0.05273,-0.404297 0.05273,-0.210937 0.140625,-0.351562 0.08789,-0.158203 0.263672,-0.158203 -0.158203,-0.01758 -0.404297,-0.210938 -0.228515,-0.210937 -0.457031,-0.457031 -0.210937,-0.263672 -0.386719,-0.509766 -0.158203,-0.263672 -0.158203,-0.404297 -0.08789,0.01758 -0.175781,0.03516 -0.07031,0 -0.158203,0 -0.246094,0 -0.474609,-0.08789 -0.210938,-0.08789 -0.421875,-0.175781 -0.210938,-0.105469 -0.439454,-0.19336 -0.228515,-0.08789 -0.492187,-0.08789 h -0.08789 q -0.07031,-0.439453 -0.228515,-0.84375 -0.140625,-0.404297 -0.140625,-0.861328 0,-0.351563 0.175781,-0.5625 0.193359,-0.210938 0.474609,-0.316407 0.28125,-0.123047 0.597657,-0.158203 0.333984,-0.03516 0.597656,-0.03516 0.492187,0 0.966797,0.05273 0.474609,0.05273 0.966797,0.05273 0.36914,0 0.685546,-0.158203 0.316407,-0.175782 0.667969,-0.175782 0.19336,0 0.404297,0.08789 0.210938,0.07031 0.421875,0.175781 0.228516,0.105469 0.457031,0.210938 0.228516,0.08789 0.439453,0.123047 0.333985,0.05273 0.703125,0.05273 0.386719,0 0.75586,0.03516 0.36914,0.03516 0.703125,0.140625 0.333984,0.08789 0.615234,0.333985 0.140625,0.123046 0.246094,0.28125 0.123047,0.158203 0.123047,0.351562 z"
             style="font-weight:400;font-size:36px;font-family:'Special Elite';letter-spacing:2.5;fill:#660000"
             id="path45" />
          <path
             d="m 75.859375,-5.4570312 q 0,0.2460937 -0.123047,0.4042968 -0.123047,0.1582032 -0.316406,0.2460938 -0.175781,0.087891 -0.404297,0.1054687 -0.210938,0.035156 -0.404297,0.035156 -0.263672,0 -0.527344,-0.035156 -0.263672,-0.035156 -0.527343,-0.070312 -0.351563,0.1230469 -0.84375,0.2460938 -0.47461,0.140625 -0.861329,0.140625 -0.105468,0 -0.210937,-0.035156 -0.08789,-0.035156 -0.175781,-0.035156 -0.298828,0 -0.615235,0.1054687 -0.298828,0.1230469 -0.597656,0.1230469 -0.509766,0 -0.984375,-0.140625 -0.457031,-0.1230469 -0.966797,-0.1582031 -0.826172,-0.070312 -1.283203,-0.6328125 -0.439453,-0.5800781 -0.474609,-1.3710938 0.544922,-0.3339843 1.142578,-0.4570312 0.615234,-0.1230469 1.230469,-0.1230469 0.351562,0 0.685546,0.017578 0.351563,0.017578 0.703125,0.052734 -0.05273,-1.3183594 -0.228515,-2.6367188 -0.175781,-1.3183602 -0.175781,-2.6542972 0,-0.457031 0.01758,-0.914063 0.03516,-0.457031 0.123047,-0.914062 0.08789,-0.457031 0.228515,-0.896485 0.140625,-0.457031 0.140625,-0.914062 0,-0.298827 -0.08789,-0.544921 -0.08789,-0.263672 -0.228516,-0.527344 -0.123047,-0.210938 -0.158203,-0.47461 -0.03516,-0.263671 -0.08789,-0.527343 -0.05273,-0.28125 -0.158203,-0.544922 -0.105469,-0.263671 -0.351562,-0.47461 -0.228516,-0.210937 -0.650391,-0.333984 -0.421875,-0.123047 -1.107422,-0.123047 -0.210937,0 -0.632812,0.07031 -0.404297,0.05273 -0.84375,0.158203 -0.421875,0.08789 -0.808594,0.228516 -0.369141,0.123047 -0.509766,0.263672 -0.08789,0.08789 -0.228515,0.246094 -0.123047,0.158203 -0.28125,0.333984 -0.140625,0.158203 -0.28125,0.298828 -0.140625,0.123047 -0.246094,0.140625 -0.263672,0.05273 -0.404297,0.08789 -0.123047,0.03516 -0.210938,0.105469 -0.07031,0.07031 -0.123046,0.210938 -0.05273,0.123047 -0.175782,0.36914 -0.03516,0.07031 -0.140625,0.28125 -0.105468,0.19336 -0.210937,0.19336 -0.08789,0 -0.123047,-0.07031 -0.03516,-0.07031 -0.123047,-0.07031 -0.03516,0 -0.105469,0.05273 -0.05273,0.03516 -0.08789,0.07031 v 0.492187 q -0.123047,0.140625 -0.228516,0.158203 -0.08789,0 -0.158203,0.01758 -0.05273,0.01758 -0.08789,0.08789 -0.01758,0.07031 -0.01758,0.333985 0,0.193359 -0.08789,0.351562 -0.08789,0.158203 -0.19336,0.316406 -0.08789,0.158203 -0.175781,0.333985 -0.08789,0.158203 -0.08789,0.36914 0,0.351563 0.08789,0.685547 0.105469,0.316406 0.105469,0.667969 0,0.228516 -0.07031,0.386719 -0.07031,0.158203 -0.175781,0.298828 -0.08789,0.123047 -0.158203,0.246094 -0.07031,0.123046 -0.07031,0.298828 0,0.246093 0.08789,0.457031 0.105469,0.193359 0.210937,0.404297 0.105469,0.210937 0.19336,0.439453 0.105469,0.2285151 0.105469,0.492187 0,0.2988281 -0.07031,0.6152344 -0.07031,0.2988281 -0.07031,0.6152343 0,0.3691407 0.105468,0.5800782 0.123047,0.1933594 0.298828,0.2988281 0.19336,0.1054688 0.439454,0.1582031 0.246093,0.052734 0.492187,0.1582032 0.263672,0.087891 0.527344,0.2636718 0.263672,0.1582032 0.492187,0.4921875 l 0.105469,-0.017578 q 0.298828,0 0.439453,0.2460938 0.140625,0.2460937 0.140625,0.5097656 0,0.2460937 -0.105469,0.4394531 -0.105468,0.1757813 -0.105468,0.4746094 0,0.2109375 -0.457032,0.3515625 -0.457031,0.140625 -1.037109,0.2109375 -0.580078,0.087891 -1.125,0.1054687 -0.527344,0.035156 -0.703125,0.035156 -0.210937,0 -0.650391,-0.017578 -0.421875,0 -0.966796,-0.035156 -0.527344,-0.017578 -1.107422,-0.070312 -0.580078,-0.052734 -1.072266,-0.1582031 -0.492187,-0.087891 -0.84375,-0.2460938 -0.333984,-0.140625 -0.421875,-0.3515625 -0.08789,-0.2109375 -0.175781,-0.4570312 -0.08789,-0.2636719 -0.08789,-0.5097656 0,-0.2636719 0.123047,-0.4746094 0.140625,-0.2109375 0.333984,-0.3867188 0.263672,-0.2460937 0.580079,-0.28125 0.316406,-0.052734 0.615234,-0.052734 0.316406,-0.017578 0.597656,-0.052734 0.298828,-0.052734 0.509766,-0.28125 0.228515,-0.2285156 0.351562,-0.7207032 0.140625,-0.4921875 0.140625,-1.3886718 0,-0.2285157 -0.03516,-0.4570308 -0.03516,-0.246094 -0.08789,-0.457032 -0.05273,-0.228515 -0.08789,-0.404297 -0.03516,-0.175781 -0.03516,-0.263671 0,-0.105469 0.05273,-0.228516 0.07031,-0.123047 0.140625,-0.246094 0.08789,-0.140625 0.140625,-0.298828 0.07031,-0.158203 0.07031,-0.351562 0,-0.298829 -0.123046,-0.580079 -0.105469,-0.28125 -0.105469,-0.580078 0,-0.246093 0.08789,-0.474609 0.08789,-0.228516 0.08789,-0.474609 0,-0.19336 -0.105469,-0.369141 -0.105468,-0.175781 -0.105468,-0.386719 0,-0.193359 0.07031,-0.386719 0.07031,-0.210937 0.07031,-0.421874 0,-0.457032 -0.105469,-0.931641 -0.105469,-0.492188 -0.19336,-0.949219 -0.105468,-0.544922 -0.404296,-0.808594 -0.28125,-0.28125 -0.650391,-0.421875 -0.369141,-0.140625 -0.773438,-0.228515 -0.404296,-0.08789 -0.738281,-0.263672 -0.333984,-0.193359 -0.5625,-0.527344 -0.210937,-0.351562 -0.210937,-1.019531 0,-0.457031 0.263672,-0.703125 0.28125,-0.246094 0.667968,-0.351563 0.386719,-0.123046 0.808594,-0.140625 0.439453,-0.01758 0.755859,-0.01758 0.509766,0 1.001954,0.158203 0.509765,0.140625 1.019531,0.175782 0.228515,0.01758 0.439453,0.158203 0.210937,0.123047 0.386719,0.316406 0.175781,0.175781 0.28125,0.404297 0.105468,0.228516 0.123047,0.457031 0,0.105469 0.07031,0.386719 0.07031,0.263672 0.158203,0.544922 0.105469,0.28125 0.210938,0.509765 0.123047,0.210938 0.246093,0.210938 0.105469,-0.08789 0.140625,-0.193359 0.05273,-0.123047 0.08789,-0.228516 0.01758,-0.105469 0.228516,-0.28125 0.228515,-0.175781 0.492187,-0.369141 0.28125,-0.193359 0.527344,-0.36914 0.263672,-0.175782 0.369141,-0.28125 0.105468,-0.123047 0.158203,-0.246094 0.07031,-0.140625 0.123047,-0.246094 0.07031,-0.123047 0.158203,-0.193359 0.105468,-0.07031 0.316406,-0.07031 h 0.08789 q 0.193359,0 0.36914,-0.158203 0.175781,-0.175781 0.457031,-0.386719 0.28125,-0.210937 0.738282,-0.36914 0.457031,-0.175781 1.21289,-0.175781 0.650391,0 1.300782,0.03516 0.65039,0.01758 1.230468,0.175781 0.597657,0.158203 1.107422,0.492188 0.527344,0.333984 0.914063,0.93164 0.298828,0.47461 0.492187,0.703125 0.19336,0.228516 0.316406,0.439453 0.123047,0.210938 0.158204,0.509766 0.05273,0.298828 0.05273,0.896484 0,0.246094 0.08789,0.457032 0.08789,0.210937 0.193359,0.439453 0.123047,0.210937 0.210937,0.457031 0.08789,0.246094 0.08789,0.5625 0,0.615234 -0.07031,1.230469 -0.07031,0.597656 -0.07031,1.21289 0,0.439453 -0.175781,0.861328 -0.158203,0.421875 -0.158203,0.861328 0,0.210938 0.105468,0.404297 0.105469,0.19336 0.105469,0.439453 0,0.298829 -0.07031,0.615235 -0.07031,0.298828 -0.07031,0.597656 0,0.28125 0.123047,0.4921875 0.140625,0.2109375 0.140625,0.4746094 0,0.140625 -0.07031,0.2285156 -0.05273,0.087891 -0.140625,0.1757813 -0.07031,0.087891 -0.140625,0.1933593 -0.05273,0.087891 -0.05273,0.2285157 0,0.2636718 0.123047,0.5449219 0.140625,0.2636718 0.351563,0.4921875 0.210937,0.2109375 0.474609,0.3515625 0.263672,0.1230468 0.527344,0.1230468 0.228515,0 0.386718,-0.087891 0.175782,-0.1054687 0.369141,-0.1054687 0.246094,0 0.439453,0.2109375 0.210938,0.1933593 0.351563,0.4746093 0.158203,0.28125 0.228515,0.5800782 0.08789,0.2988281 0.08789,0.4921875 z M 72.0625,-12.083984 q 0,-0.175782 -0.123047,-0.333985 -0.105469,-0.175781 -0.298828,-0.175781 -0.193359,0 -0.263672,0.193359 -0.07031,0.175782 -0.07031,0.333985 0,0.193359 0.07031,0.36914 0.07031,0.175782 0.28125,0.175782 0.175781,0 0.263672,-0.105469 0.105469,-0.123047 0.140625,-0.421875 z m 0.298828,3.3749996 q 0,-0.1230469 -0.105469,-0.1933594 -0.08789,-0.087891 -0.193359,-0.140625 -0.03516,0.1054688 -0.123047,0.2109375 -0.08789,0.1054688 -0.175781,0.2285157 -0.08789,0.1230468 -0.175781,0.2460937 -0.07031,0.1230469 -0.07031,0.2460938 0,0.140625 0.08789,0.2109375 0.08789,0.070312 0.210937,0.1230469 0.01758,-0.1054688 0.105469,-0.2109375 0.105469,-0.1054688 0.193359,-0.2285157 0.08789,-0.1230469 0.158203,-0.2285156 0.08789,-0.1230469 0.08789,-0.2636719 z M 60.671875,-12.488281 q 0,-0.123047 -0.05273,-0.298828 -0.03516,-0.175782 -0.123047,-0.333985 -0.07031,-0.175781 -0.19336,-0.28125 -0.105468,-0.123047 -0.263672,-0.123047 -0.193359,0 -0.333984,0.123047 -0.140625,0.105469 -0.351562,0.105469 h -0.07031 q -0.05273,0.193359 -0.05273,0.369141 l 0.01758,0.105468 0.01758,-0.05273 q 0.05273,0.193359 0.210937,0.298828 0.158204,0.105469 0.333985,0.193359 0.193359,0.07031 0.386719,0.140625 0.193359,0.07031 0.333984,0.19336 0.140625,-0.158203 0.140625,-0.439453 z"
             style="font-weight:400;font-size:36px;font-family:'Special Elite';letter-spacing:2.5;fill:#660000"
             id="path47" />
          <path
             d="m 112.48242,-23.351562 q 0,0.316406 -0.0176,0.65039 0,0.316406 -0.0703,0.615235 -0.0352,0.158203 -0.1582,0.351562 -0.12305,0.175781 -0.29883,0.351563 -0.1582,0.158203 -0.35156,0.28125 -0.19336,0.105468 -0.35156,0.105468 -0.26368,0 -0.33399,-0.210937 -0.0703,-0.210938 -0.10547,-0.457031 -0.0176,-0.246094 -0.10547,-0.457032 -0.0703,-0.210937 -0.35156,-0.210937 -0.0879,0 -0.1582,0.03516 -0.0527,0.03516 -0.14063,0.03516 -0.0352,0 -0.0703,-0.210937 -0.0352,-0.210938 -0.0879,-0.509766 -0.0527,-0.298828 -0.12305,-0.597656 -0.0703,-0.316406 -0.1582,-0.527344 -0.1582,-0.333984 -0.33398,-0.685547 -0.15821,-0.36914 -0.15821,-0.773437 0,-0.28125 0.10547,-0.47461 0.10547,-0.210937 0.22852,-0.386718 0.12304,-0.175782 0.22851,-0.351563 0.10547,-0.175781 0.10547,-0.421875 0,-0.351562 -0.22851,-0.615234 -0.22852,-0.263672 -0.58008,-0.421875 -0.33399,-0.175781 -0.72071,-0.246094 -0.36914,-0.08789 -0.65039,-0.08789 -0.47461,0 -0.93164,0.123047 -0.43945,0.105469 -0.89648,0.263672 -0.43945,0.158203 -0.87891,0.333985 -0.43945,0.175781 -0.8789,0.298828 0.0879,0.246093 0.10546,0.509765 0.0352,0.263672 0.0352,0.527344 0,0.597656 -0.0527,1.195313 -0.0527,0.580078 -0.0527,1.177734 0,0.650391 0.0703,1.300781 0.0703,0.632813 0.14063,1.265625 0.0879,0.632813 0.1582,1.283203 0.0703,0.632813 0.0703,1.265625 0,0.773438 -0.26368,1.511719 -0.0527,0.140625 -0.0527,0.228516 0,0.193359 0.0879,0.386718 0.0879,0.175782 0.19336,0.386719 0.12305,0.19336 0.21094,0.404297 0.0879,0.210937 0.0879,0.439453 0,0.210938 -0.0703,0.404297 -0.0703,0.193359 -0.0703,0.386719 0,0.28125 0.0703,0.544922 0.0879,0.263671 0.0879,0.544921 0,0.158204 -0.0879,0.19336 -0.0703,0.03516 -0.17578,0.03516 -0.10547,0 -0.19336,0.01758 -0.0703,0 -0.0703,0.08789 0,0.263672 0.10547,0.509765 0.12305,0.228516 0.12305,0.492188 0,0.228516 -0.10547,0.439453 -0.0879,0.193359 -0.0879,0.421875 0,0.228516 0.19336,0.404297 0.21093,0.175781 0.29883,0.421875 0.0879,0.298828 0.14062,0.685547 0.0703,0.3867186 0.24609,0.7382811 0.19336,0.3515625 0.58008,0.5976563 0.38672,0.2285156 1.14258,0.2285156 h 0.50977 q 0.21093,0 0.50976,0.035156 0.31641,0.035156 0.59766,0.140625 0.29883,0.087891 0.49219,0.28125 0.21093,0.1757813 0.21093,0.4570313 0,0.28125 -0.10547,0.5449219 -0.10546,0.2636719 -0.10546,0.5449219 0,0.087891 0.0352,0.2636718 -0.26367,0 -0.47461,0.1230469 -0.19336,0.1054688 -0.28125,0.3691406 -0.35156,-0.070312 -0.7207,-0.087891 -0.35156,-0.035156 -0.70313,-0.035156 -0.89648,0 -1.77539,0.140625 -0.8789,0.1230468 -1.77539,0.28125 -0.8789,0.140625 -1.77539,0.28125 -0.8789,0.1230468 -1.775389,0.1230468 -0.298828,0 -0.738281,-0.017578 -0.439453,-0.017578 -0.84375,-0.1230469 -0.404297,-0.1054687 -0.703125,-0.3164062 -0.28125,-0.2285156 -0.28125,-0.6503906 0,-0.4921875 0.08789,-0.7207032 0.105468,-0.2460937 0.246093,-0.3339843 0.140625,-0.1054688 0.316407,-0.1230469 0.193359,-0.017578 0.36914,-0.070312 0.05273,-0.052734 0.05273,-0.1054688 0,-0.087891 -0.08789,-0.140625 -0.07031,-0.070312 -0.158203,-0.1054687 0.298828,-0.2636719 0.667969,-0.3691407 0.386718,-0.1054687 0.773437,-0.140625 0.404297,-0.035156 0.808592,-0.070312 0.40429,-0.035156 0.75586,-0.1757812 0.14062,-0.052734 0.29883,-0.2988281 0.1582,-0.2460938 0.28125,-0.5449219 0.14063,-0.2988281 0.21093,-0.5976563 0.0879,-0.2988274 0.0879,-0.4570314 v -0.03516 q -0.12304,-0.84375 -0.19335,-1.652344 -0.0703,-0.808593 -0.0703,-1.652343 0,-0.07031 0.0527,-0.228516 0.0527,-0.175781 0.14062,-0.351562 0.0703,-0.19336 0.19336,-0.439454 -0.14063,-0.228515 -0.24608,-0.421875 -0.0879,-0.175781 -0.15821,-0.333984 -0.0703,-0.158203 -0.0703,-0.246094 0,-0.210937 0.0703,-0.404296 0.0703,-0.19336 0.10547,-0.386719 0.10546,-0.738281 0.10546,-1.494141 0,-0.316406 -0.0527,-0.615234 -0.0352,-0.316406 -0.10547,-0.615235 -0.22852,-1.072265 -0.22852,-2.214843 0,-1.335938 0.17578,-2.654297 0.17579,-1.31836 0.17579,-2.654297 0,-0.457031 -0.1582,-0.703125 -0.1582,-0.263672 -0.61523,-0.404297 -0.61524,-0.175781 -1.283212,-0.28125 -0.650391,-0.105469 -1.300781,-0.105469 -0.492188,0 -1.03711,0.123047 -0.527343,0.105469 -0.984375,0.369141 -0.439453,0.246094 -0.738281,0.667969 -0.28125,0.404296 -0.28125,0.984375 0,0.298828 0.03516,0.580078 0.03516,0.28125 0.03516,0.580078 0,0.28125 -0.123047,0.492187 -0.105469,0.19336 -0.105469,0.386719 0,0.263672 0.140625,0.492188 0.140625,0.228515 0.140625,0.492187 0,0.175781 -0.08789,0.386719 -0.07031,0.210937 -0.175781,0.439453 -0.105469,0.210937 -0.210937,0.421875 -0.08789,0.210937 -0.140625,0.386719 -0.08789,0.263672 -0.228516,0.457031 -0.140625,0.193359 -0.439453,0.193359 -0.246094,0 -0.457031,-0.158203 -0.210938,-0.175781 -0.210938,-0.421875 0,-0.193359 0.08789,-0.298828 0.105469,-0.123047 0.105469,-0.28125 0,-0.175781 -0.07031,-0.351562 -0.07031,-0.19336 -0.175781,-0.369141 -0.08789,-0.193359 -0.158203,-0.386719 -0.07031,-0.193359 -0.07031,-0.386719 0,-0.246093 0.07031,-0.474609 0.08789,-0.228516 0.08789,-0.474609 0,-0.527344 -0.175781,-1.03711 -0.158203,-0.509765 -0.158203,-1.037109 0,-0.474609 0.105469,-1.125 0.105468,-0.650391 0.351562,-1.248047 0.263672,-0.597656 0.667969,-1.001953 0.421875,-0.421875 1.054687,-0.421875 0.439454,0 0.861329,0.105469 0.439453,0.08789 0.896484,0.08789 0.509766,0 1.019531,-0.08789 0.509766,-0.08789 1.019531,-0.08789 0.351563,0 0.650391,0.123047 0.316412,0.105469 0.667972,0.105469 0.21094,0 0.35156,-0.08789 0.15821,-0.105469 0.35157,-0.105469 0.21093,0 0.40429,0.105469 0.21094,0.08789 0.42188,0.08789 0.19336,0 0.35156,-0.05273 0.17578,-0.05273 0.35156,-0.05273 0.26368,0 0.50977,0.07031 0.26367,0.07031 0.50977,0.07031 l 2.12695,-0.263672 q 0.47461,-0.03516 0.94922,-0.07031 0.47461,-0.03516 0.96679,-0.03516 0.84375,0 1.66993,0.140625 0.84375,0.123047 1.6875,0.316407 v 0.01758 q 0.58007,0.140625 0.82617,0.597656 0.24609,0.457031 0.3164,1.054687 0.0879,0.580079 0.0703,1.195313 -0.0176,0.615234 0.0176,1.054687 0.0527,0.667969 0.12305,1.353516 0.0879,0.667969 0.0879,1.335938 z"
             style="font-weight:400;font-size:36px;font-family:'Special Elite';letter-spacing:2.5;fill:#660000"
             id="path49" />
          <path
             d="m 134.47656,-12.699219 q 0,0.246094 -0.0879,0.47461 -0.0703,0.210937 -0.17578,0.36914 -0.0879,0.158203 -0.17578,0.263672 -0.0703,0.105469 -0.0703,0.123047 0,0.175781 0.10547,0.369141 0.12304,0.193359 0.12304,0.421875 0,0.105468 -0.0879,0.140625 -0.0703,0.03516 -0.1582,0.03516 -0.1582,0 -0.26367,-0.03516 0.0176,0.333984 0.0527,0.6503902 0.0527,0.3164063 0.0527,0.6503907 0,0.5097656 -0.10547,0.6679687 -0.0879,0.140625 -0.19336,0.1757813 -0.10547,0.035156 -0.21094,0.087891 -0.0879,0.035156 -0.0879,0.3164063 0,0.1582031 -0.22852,0.4042968 -0.21093,0.2460938 -0.52734,0.4921875 -0.29883,0.2460938 -0.63281,0.421875 -0.31641,0.1757813 -0.50977,0.1757813 -0.0527,0 -0.12305,-0.035156 0,0.140625 0.0176,0.2988282 0.0176,0.1582031 0.0176,0.2988281 0,0.2285156 -0.14062,0.3164062 -0.14063,0.070312 -0.31641,0.140625 -0.26367,0.1230469 -0.54492,0.3691407 -0.28125,0.2285156 -0.58008,0.4746093 -0.29883,0.2460938 -0.61523,0.421875 -0.29883,0.1933594 -0.63282,0.1933594 -0.28125,0 -0.52734,-0.140625 -0.22852,-0.140625 -0.54492,-0.140625 -0.28125,0 -0.47461,0.070312 -0.19336,0.087891 -0.36914,0.1757813 -0.15821,0.1054687 -0.33399,0.1757812 -0.17578,0.087891 -0.40429,0.087891 -0.45703,0 -0.91407,-0.2460937 -0.45703,-0.2285156 -0.8789,-0.3691406 -0.2461,-0.087891 -0.52735,-0.140625 -0.28125,-0.035156 -0.54492,-0.087891 -0.26367,-0.052734 -0.50976,-0.1757812 -0.22852,-0.1054688 -0.4043,-0.3164063 -0.36914,-0.4570312 -0.86133,-0.7558593 -0.49219,-0.2988282 -1.00195,-0.5625 -0.50977,-0.2636719 -0.98438,-0.5449219 -0.47461,-0.2988281 -0.82617,-0.7734375 -0.26367,-0.3691407 -0.59765,-0.7910157 -0.33399,-0.4394531 -0.63282,-0.9140625 -0.28125,-0.4746093 -0.47461,-0.9667975 -0.19336,-0.492187 -0.19336,-0.966797 0,-0.351562 0.0703,-0.685546 0.0703,-0.333985 0.14062,-0.667969 0.0879,-0.351563 0.1582,-0.685547 0.0703,-0.333984 0.0703,-0.685547 v -0.193359 q 0,-0.07031 -0.0527,-0.158203 -0.0527,-0.08789 -0.12304,-0.158204 -0.0527,-0.08789 -0.12305,-0.140625 -0.0527,-0.07031 -0.0703,-0.07031 -0.0352,0 -0.0352,0.01758 0.0176,-0.158203 0.0879,-0.474609 0.0879,-0.333985 0.19336,-0.667969 0.10547,-0.351562 0.21094,-0.632812 0.10547,-0.298829 0.19336,-0.386719 0.10547,-0.08789 0.19336,-0.175781 0.10547,-0.105469 0.10547,-0.263672 0,-0.158203 -0.0176,-0.298828 -0.0176,-0.158204 -0.0176,-0.316407 0,-0.210937 0.0527,-0.246093 0.0527,-0.05273 0.14063,-0.05273 0.0879,0 0.17578,-0.01758 0.0879,-0.03516 0.17578,-0.193359 0.1582,-0.316407 0.29883,-0.580078 0.1582,-0.28125 0.33398,-0.509766 0.17578,-0.228516 0.4043,-0.421875 0.22852,-0.193359 0.5625,-0.369141 0.28125,-0.158203 0.54492,-0.386718 0.28125,-0.228516 0.5625,-0.457032 0.28125,-0.228515 0.5625,-0.386718 0.29883,-0.158204 0.63281,-0.158204 0.47461,0 0.91407,-0.158203 0.45703,-0.175781 0.91406,-0.263672 0.7207,-0.105468 1.42383,-0.193359 0.7207,-0.105469 1.45898,-0.105469 0.4043,0 0.98438,0.140625 0.58007,0.123047 1.17773,0.333985 0.61524,0.210937 1.14258,0.474609 0.54492,0.263672 0.86133,0.527344 v 0.05273 q 0,0.246094 -0.0879,0.509766 -0.0879,0.246094 -0.0879,0.492187 0,0.03516 0,0.07031 0,0.03516 0.0352,0.03516 0.29883,0 0.5625,-0.07031 0.28125,-0.08789 0.58008,-0.08789 0.0352,0.298828 0.26367,0.404297 0.22852,0.105469 0.45703,0.193359 0.21094,0.105469 0.38672,0.386719 0.19336,0.263672 0.35156,0.615234 0.15821,0.333985 0.29883,0.667969 0.15821,0.333984 0.29883,0.544922 0.14063,0.210937 0.24609,0.509766 0.12305,0.28125 0.19336,0.597656 0.0879,0.316406 0.12305,0.632812 0.0352,0.298828 0.0352,0.5625 0,0.351563 -0.14063,0.597656 -0.12304,0.228516 -0.28125,0.421875 -0.1582,0.175782 -0.29883,0.351563 -0.12304,0.158203 -0.12304,0.369141 0,0.123046 0.0527,0.228515 0.0527,0.105469 0.14063,0.19336 0.0351,-0.01758 0.14062,-0.03516 0.12305,-0.01758 0.12305,-0.105468 v -0.01758 q 0,-0.140625 -0.12305,-0.263671 -0.10547,-0.123047 -0.10547,-0.298829 0,-0.03516 0.0352,-0.105468 0.0352,-0.08789 0.0879,-0.08789 0.10547,0 0.21094,0.140625 0.10547,0.123047 0.19336,0.28125 0.10547,0.140625 0.1582,0.246094 0.0527,0.105469 0.0527,0.07031 l -0.0176,-0.01758 q 0.0176,0.08789 0.0176,0.158203 0.0176,0.05274 0.0176,0.123047 z m -1.75781,0.140625 q 0,-0.28125 -0.21094,-0.333984 -0.21094,-0.07031 -0.47461,-0.08789 -0.26367,-0.01758 -0.52734,-0.05273 -0.24609,-0.03516 -0.33399,-0.263672 v -0.175781 q 0,-0.386719 -0.10546,-0.896485 -0.0879,-0.527343 -0.22852,-1.054687 -0.14062,-0.544922 -0.29883,-1.054688 -0.1582,-0.527343 -0.29883,-0.93164 -0.14062,-0.404297 -0.22851,-0.650391 -0.0879,-0.246094 -0.0879,-0.246094 -0.14063,0.03516 -0.22852,0.03516 -0.29883,0 -0.52734,-0.123047 -0.21094,-0.123047 -0.49219,-0.263672 -0.26367,-0.140625 -0.66797,-0.263672 -0.38672,-0.123047 -1.03711,-0.123047 -0.7207,0 -1.42382,-0.08789 -0.70313,-0.105469 -1.42383,-0.105469 -0.98438,0 -1.84571,0.457031 -0.86132,0.439453 -1.51171,1.177734 -0.6504,0.720704 -1.01954,1.634766 -0.36914,0.914062 -0.36914,1.845703 0,0.386719 0.0176,0.914063 0.0176,0.509765 0.0879,1.037109 0.0703,0.509766 0.22852,0.966797 0.1582,0.439453 0.43945,0.667969 v 0.492187 q 0.0703,0.070313 0.17578,0.087891 0.12305,0 0.22852,0 0.12304,0 0.21094,0.035156 0.0879,0.017578 0.14062,0.140625 0.22852,0.6503906 0.59766,1.0019531 0.36914,0.3339844 0.79101,0.5800781 0.42188,0.2285157 0.84375,0.4746094 0.42188,0.2285157 0.77344,0.6855469 0.14062,-0.017578 0.29883,-0.017578 0.1582,-0.017578 0.29883,-0.017578 0.5625,0 1.08984,0.087891 0.54492,0.070312 1.08984,0.070312 0.58008,0 1.03711,-0.2988281 0.47461,-0.2988282 0.8086,-0.7558594 0.21093,-0.2988282 0.38671,-0.5097657 0.17579,-0.2109375 0.35157,-0.3867187 0.19336,-0.1933594 0.40429,-0.3515625 0.22852,-0.1757813 0.52735,-0.3867188 0.10547,-0.070312 0.24609,-0.1757812 0.1582,-0.1054688 0.29883,-0.2285161 0.1582,-0.140625 0.26367,-0.263672 0.10547,-0.140625 0.10547,-0.263671 0,-0.158204 -0.0527,-0.316407 -0.0352,-0.158203 -0.0352,-0.316406 0,-0.175781 0.0527,-0.421875 0.0527,-0.246094 0.15821,-0.474609 0.12304,-0.228516 0.28125,-0.369141 0.17578,-0.158203 0.42187,-0.158203 0.19336,0 0.38672,0.08789 0.19336,0.08789 0.35156,0.210937 0.0352,-0.175781 0.0352,-0.263672 z"
             style="font-weight:400;font-size:36px;font-family:'Special Elite';letter-spacing:2.5;fill:#660000"
             id="path51" />
          <path
             d="m 160.90039,-6.1074219 q 0,0.3164063 -0.21094,0.6679688 -0.19336,0.3515625 -0.50976,0.6328125 -0.29883,0.2988281 -0.65039,0.4921875 -0.35157,0.1933594 -0.66797,0.1933594 -0.54492,0 -1.07227,-0.087891 -0.52734,-0.087891 -1.08984,-0.087891 -0.26367,0 -0.61524,-0.035156 -0.33398,-0.035156 -0.47461,-0.1757813 -0.40429,-0.070312 -0.59765,-0.3164062 -0.19336,-0.2285157 -0.35156,-0.5097657 -0.14063,-0.28125 -0.31641,-0.5449218 -0.1582,-0.2636719 -0.49219,-0.3691407 -1.00195,0.4394532 -1.77539,0.84375 -0.75586,0.4042969 -1.51172,0.703125 -0.73828,0.3164063 -1.59961,0.4921875 -0.84375,0.1933594 -2.02148,0.1933594 -0.50977,0 -0.73828,-0.052734 -0.21094,-0.052734 -0.33399,-0.1757812 -0.10547,-0.1054688 -0.21093,-0.2988281 -0.0879,-0.1933594 -0.35157,-0.4746094 -0.14062,-0.140625 -0.28125,-0.1582031 -0.12304,-0.035156 -0.24609,-0.035156 h -0.0879 q -0.1582,0 -0.29883,-0.052734 -0.12305,-0.070312 -0.19336,-0.3515625 -0.0527,-0.2109375 -0.21094,-0.4746093 -0.1582,-0.28125 -0.36914,-0.5625 -0.19336,-0.28125 -0.40429,-0.5097657 -0.21094,-0.2285156 -0.38672,-0.3515625 l -0.0176,-1.7402344 q -0.0176,-1.7578123 0.10547,-3.4804683 0.12305,-1.722656 0.12305,-3.480469 0,-0.263672 -0.0176,-0.720703 -0.0176,-0.474609 -0.0879,-0.949219 -0.0527,-0.474609 -0.21094,-0.84375 -0.14063,-0.386718 -0.4043,-0.457031 -0.40429,-0.08789 -0.82617,-0.07031 -0.4043,0 -0.80859,-0.01758 -0.4043,-0.01758 -0.79102,-0.123047 -0.36914,-0.105469 -0.70312,-0.457032 -0.19336,-0.193359 -0.36914,-0.474609 -0.15821,-0.28125 -0.15821,-0.580078 0,-0.439453 0.36914,-0.738281 0.38672,-0.316407 0.91407,-0.509766 0.52734,-0.193359 1.07226,-0.28125 0.54492,-0.08789 0.87891,-0.08789 0.96679,0 1.82812,0.298829 0.87891,0.28125 1.59961,0.93164 0.0352,0.03516 0.0352,0.07031 0,0.01758 -0.0176,0.03516 0.0352,0.509766 0.14062,1.019531 0.10547,0.492188 0.10547,1.001953 0,0.28125 -0.0879,0.527344 -0.0703,0.246094 -0.0703,0.544922 0,0.298828 0.0703,0.597656 0.0703,0.298828 0.0703,0.597656 0,0.19336 -0.0352,0.386719 -0.0352,0.19336 -0.0352,0.386719 0,0.544922 0.12305,1.072265 0.12305,0.509766 0.12305,1.054688 0,0.474609 -0.10547,0.931641 -0.10547,0.439453 -0.2461,0.896484 -0.12304,0.457031 -0.22851,0.914062 -0.10547,0.439454 -0.10547,0.914063 0,0.6503902 0.26367,1.2128902 0.26367,0.5625 0.70313,0.984375 0.43945,0.4042969 1.00195,0.6503907 0.58008,0.2285156 1.21289,0.2285156 0.54492,0 0.87891,-0.1054688 0.35156,-0.1230468 0.5625,-0.2636718 0.21093,-0.140625 0.33398,-0.2460938 0.14063,-0.1230469 0.28125,-0.1230469 0.14063,0 0.24609,0.035156 0.12305,0.017578 0.2461,0.017578 0.24609,0 0.4043,-0.1054688 0.1582,-0.1054687 0.28125,-0.2460937 0.14062,-0.140625 0.26367,-0.2636719 0.14062,-0.140625 0.35156,-0.1933594 0.4043,-0.087891 0.70312,-0.2285156 0.29883,-0.1582031 0.29883,-0.6328125 0,-0.087891 0.0176,-0.1582031 0.0352,-0.070312 0.17578,-0.070312 0.0879,0 0.12305,0.052734 0.0527,0.035156 0.14062,0.070312 0.0879,-0.070312 0.12305,-0.1933594 0.0352,-0.1230468 0.0703,-0.2109378 0.0879,-0.316406 0.31641,-0.5625 0.24609,-0.246093 0.28125,-0.5625 0.0352,-0.351562 0.17578,-0.65039 0.14063,-0.298828 0.14063,-0.632813 0,-0.298828 -0.15821,-0.527343 -0.1582,-0.228516 -0.1582,-0.544922 0,-0.351563 0.12305,-0.703125 0.14062,-0.351563 0.14062,-0.703125 -0.10547,-0.140625 -0.21094,-0.316407 -0.0879,-0.175781 -0.0879,-0.351562 0,-0.298828 0.10547,-0.386719 0.10547,-0.105468 0.10547,-0.210937 0,-0.158203 -0.0879,-0.316406 -0.0703,-0.175782 -0.17578,-0.333985 -0.10547,-0.158203 -0.19336,-0.316406 -0.0703,-0.158203 -0.0703,-0.333984 0,-0.175782 0.0527,-0.333985 0.0703,-0.175781 0.0703,-0.36914 0,-0.28125 -0.14062,-0.492188 -0.12305,-0.228516 -0.33399,-0.369141 -0.19335,-0.158203 -0.45703,-0.228515 -0.24609,-0.08789 -0.49218,-0.123047 -0.43946,-0.05273 -0.75586,-0.05273 -0.31641,0 -0.5625,-0.07031 -0.22852,-0.08789 -0.43946,-0.298828 -0.19336,-0.210938 -0.40429,-0.685547 -0.12305,-0.28125 -0.12305,-0.474609 0,-0.421875 0.36914,-0.667969 0.38672,-0.263672 0.89648,-0.386719 0.50977,-0.140625 1.01954,-0.175781 0.52734,-0.05273 0.82617,-0.05273 0.28125,0 0.54492,0.05273 0.28125,0.03516 0.5625,0.03516 0.29883,0 0.58008,-0.105469 0.29883,-0.123046 0.59765,-0.123046 0.42188,0 0.68555,0.246093 0.26367,0.228516 0.4043,0.615235 0.1582,0.36914 0.21094,0.861328 0.0527,0.474609 0.0527,0.966797 0,0.65039 -0.0527,1.230468 -0.0352,0.580079 -0.0352,0.931641 0,0.755859 0.14062,1.423828 0.15821,0.650391 0.15821,1.212891 0,0.175781 -0.0879,0.351562 -0.0703,0.175781 -0.15821,0.351563 -0.0879,0.175781 -0.17578,0.351562 -0.0703,0.175781 -0.0703,0.351563 0,0.140625 0.0527,0.246093 l 0.12305,1.019532 q -0.0879,0.07031 -0.10547,0.175781 -0.0176,0.105469 -0.0176,0.193359 0,0.28125 0.0527,0.5625 0.0703,0.263672 0.0703,0.5625 0,0.333985 -0.0703,0.667969 -0.0703,0.3164062 -0.0703,0.6503905 0,0.8085938 0.54492,1.2480469 0.5625,0.421875 1.31836,0.421875 0.42187,0 0.84375,-0.140625 0.12304,0.2636719 0.33398,0.4746094 0.22852,0.1933594 0.43945,0.3867188 0.21094,0.1933593 0.35157,0.4394531 0.1582,0.2460937 0.1582,0.5976562 z"
             style="font-weight:400;font-size:36px;font-family:'Special Elite';letter-spacing:2.5;fill:#660000"
             id="path53" />
          <path
             d="m 184.30078,-17.832031 q 0,0.351562 -0.14062,0.597656 -0.14063,0.246094 -0.31641,0.474609 -0.1582,0.210938 -0.33398,0.439454 -0.15821,0.228515 -0.21094,0.544921 -0.15821,-0.07031 -0.33399,-0.08789 -0.1582,-0.01758 -0.33398,-0.01758 -0.42188,0 -0.84375,0.07031 -0.4043,0.05273 -0.80859,0.05273 -0.47461,0 -0.79102,-0.281249 -0.29883,-0.298829 -0.49219,-0.720704 -0.17578,-0.421875 -0.24609,-0.896484 -0.0703,-0.492187 -0.0703,-0.878906 0,-0.492188 0.1582,-1.001953 -0.14063,-0.05273 -0.24609,-0.05273 -0.22852,0 -0.33399,0.140625 -0.0879,0.140625 -0.26367,0.140625 -0.1582,0 -0.28125,-0.105468 -0.12305,-0.123047 -0.29883,-0.123047 -0.26367,0 -0.66797,0.175781 -0.38672,0.158203 -0.75586,0.421875 -0.36914,0.263672 -0.65039,0.580078 -0.26367,0.298828 -0.26367,0.580078 -0.36914,0.03516 -0.70312,0.210938 -0.31641,0.158203 -0.61524,0.351562 -0.22851,0.140625 -0.38672,0.439453 -0.1582,0.298828 -0.29883,0.650391 -0.12304,0.333984 -0.26367,0.685547 -0.12304,0.351562 -0.29883,0.580078 -0.29882,0.386719 -0.52734,0.791015 -0.21094,0.386719 -0.21094,0.878907 0,0.615234 0.19336,1.248047 0.19336,0.632812 0.19336,1.283203 0,0.421875 -0.0703,0.8437497 -0.0527,0.421875 -0.0527,0.8261719 0,0.4921875 0.17579,0.7910156 0.17578,0.2988282 0.47461,0.4746094 0.29882,0.1582032 0.68554,0.2109375 0.38672,0.052734 0.79102,0.052734 0.43945,0 0.84375,-0.017578 0.42187,-0.035156 0.77344,-0.035156 0.12304,0.140625 0.14062,0.2636719 0.0176,0.1230469 -0.0176,0.2636719 -0.0176,0.1230469 -0.0703,0.2636719 -0.0352,0.1230468 -0.0352,0.2988281 0,0.070312 0.0352,0.1757812 0.26367,0 0.45703,-0.1230468 0.19336,-0.1230469 0.28125,-0.3867188 0.12305,0.035156 0.21094,0.1054688 0.10547,0.070312 0.10547,0.2109375 0,0.1054687 -0.0527,0.2109375 -0.0527,0.087891 -0.12304,0.1757812 -0.0703,0.087891 -0.12305,0.1933594 -0.0527,0.087891 -0.0527,0.2109375 0,0.070312 0.0176,0.1582031 0.0176,0.070312 0.0527,0.1230469 -0.0879,0.140625 -0.2461,0.1933594 -0.1582,0.052734 -0.3164,0.052734 -0.28125,0 -0.47461,-0.087891 -0.17578,-0.087891 -0.33399,-0.1933594 -0.14062,-0.1054687 -0.26367,-0.1933593 -0.12305,-0.087891 -0.29883,-0.087891 -0.0703,0 -0.21093,0.035156 -0.14063,0.035156 -0.28125,0.087891 -0.14063,0.052734 -0.2461,0.140625 -0.10547,0.070312 -0.10547,0.140625 0,0.140625 0.0879,0.2460938 0.10547,0.1054687 0.10547,0.2460937 0,0.1230469 -0.0879,0.1933594 -0.0879,0.070312 -0.21094,0.087891 -0.12304,0.035156 -0.26367,0.035156 -0.12304,0.017578 -0.21093,0.017578 -0.68555,0 -1.3711,-0.1582031 -0.66797,-0.140625 -1.35351,-0.140625 -0.31641,0 -0.63282,0.140625 -0.3164,0.140625 -0.66797,0.140625 -0.19335,0 -0.29882,-0.087891 -0.0879,-0.070312 -0.15821,-0.1757812 -0.0703,-0.1054688 -0.1582,-0.1933594 Q 169.21875,-5 169.04297,-5 q -0.33399,0 -0.66797,0.070312 -0.31641,0.070312 -0.65039,0.140625 -0.31641,0.087891 -0.65039,0.140625 -0.31641,0.070312 -0.65039,0.070312 -0.17578,0 -0.42188,-0.052734 -0.24609,-0.035156 -0.47461,-0.140625 -0.22851,-0.1054687 -0.38672,-0.2636718 -0.1582,-0.1582032 -0.1582,-0.3867188 0,-0.140625 0.1582,-0.3691406 0.17579,-0.2285156 0.38672,-0.4394531 0.21094,-0.2285157 0.42188,-0.3867188 0.21094,-0.1582031 0.3164,-0.1582031 0.28125,0 0.54493,0.017578 0.28125,0.017578 0.58007,0.017578 0.47461,0 0.94922,-0.140625 0.49219,-0.1582031 0.87891,-0.4394531 0.4043,-0.28125 0.65039,-0.703125 0.24609,-0.421875 0.24609,-0.9492188 0,-0.2285156 -0.0351,-0.4394531 -0.0352,-0.2285156 -0.0352,-0.4570312 0,-0.4570316 0.10547,-0.9140626 0.10547,-0.457031 0.10547,-0.914063 0,-0.615234 -0.14063,-1.248047 -0.12304,-0.65039 -0.12304,-1.300781 0,-0.580078 0.0176,-1.142578 0.0351,-0.580078 0.0351,-1.160156 0,-0.263672 -0.0176,-0.773438 -0.0176,-0.509765 -0.12304,-1.019531 -0.0879,-0.509765 -0.29883,-0.896484 -0.19336,-0.386719 -0.54492,-0.386719 -0.38672,0 -0.77344,0.08789 -0.38672,0.08789 -0.79102,0.08789 -0.29882,0 -0.70312,-0.03516 -0.4043,-0.05273 -0.77344,-0.175781 -0.36914,-0.140625 -0.63281,-0.386719 -0.26367,-0.246094 -0.26367,-0.650391 0,-0.439453 0.12304,-0.703125 0.12305,-0.28125 0.31641,-0.421875 0.21094,-0.140625 0.47461,-0.193359 0.28125,-0.05273 0.59766,-0.05273 0.28125,0 0.58007,0.01758 0.29883,0.01758 0.58008,0.01758 0.5625,0 1.10742,-0.05273 0.5625,-0.07031 1.125,-0.07031 0.38672,0 0.77344,0.03516 0.38672,0.03516 0.75586,0.158203 0.33398,0.105469 0.49219,0.404297 0.1582,0.28125 0.28125,0.580078 0.14062,0.298829 0.3164,0.544922 0.17579,0.228516 0.5625,0.228516 0.17579,0 0.31641,-0.08789 0.1582,-0.105468 0.29883,-0.228515 0.14062,-0.123047 0.28125,-0.228516 0.14062,-0.105469 0.33398,-0.140625 0.38672,-0.05273 0.70313,-0.246094 0.33398,-0.193359 0.65039,-0.386718 0.3164,-0.19336 0.63281,-0.351563 0.33399,-0.158203 0.7207,-0.158203 0.22852,0 0.5625,-0.05273 0.35157,-0.05273 0.68555,-0.140625 0.35156,-0.105469 0.65039,-0.246094 0.31641,-0.140625 0.49219,-0.316406 0.47461,0.03516 1.10742,0.228515 0.65039,0.19336 1.23047,0.527344 0.59766,0.316406 1.03711,0.755859 0.43945,0.439453 0.50976,0.984375 0.0527,0.333985 0.19336,0.632813 0.14063,0.298828 0.28125,0.597656 0.15821,0.28125 0.28125,0.597656 0.12305,0.298828 0.12305,0.632813 z"
             style="font-weight:400;font-size:36px;font-family:'Special Elite';letter-spacing:2.5;fill:#660000"
             id="path55" />
        </g>
      </g>
      <g
         id="zweig"
         transform="translate(0,5)">
        <g
           id="zwei"
           style="dominant-baseline:text-before-edge;text-anchor:middle;text-rendering:geometricPrecision" />
      </g>
    </g>
  </g>
</svg>
